<svg width="33" height="32" viewBox="0 0 33 32" fill="none" xmlns="http://www.w3.org/2000/svg">
<path d="M27.2998 4.51172C27.94 4.51172 28.5739 4.63781 29.1654 4.88281C29.7568 5.1278 30.2943 5.48689 30.747 5.93957C31.1996 6.39226 31.5587 6.92968 31.8037 7.52114C32.0487 8.1126 32.1748 8.74652 32.1748 9.38672V26.6367C32.1748 27.2769 32.0487 27.9108 31.8037 28.5023C31.5587 29.0938 31.1996 29.6312 30.747 30.0839C30.2943 30.5366 29.7568 30.8956 29.1654 31.1406C28.5739 31.3856 27.94 31.5117 27.2998 31.5117H10.0498C9.40961 31.5117 8.77569 31.3856 8.18422 31.1406C7.59276 30.8956 7.05534 30.5366 6.60266 30.0839C6.14997 29.6312 5.79088 29.0938 5.54589 28.5023C5.3009 27.9108 5.1748 27.2769 5.1748 26.6367V17.2647C5.8858 17.5617 6.6403 17.7747 7.4248 17.8977V26.6367C7.4248 26.9487 7.4788 27.2487 7.5793 27.5277L16.3138 18.9762C16.9126 18.3901 17.708 18.0476 18.5452 18.0154C19.3825 17.9833 20.2018 18.2637 20.8438 18.8022L21.0358 18.9762L29.7688 27.5292C29.8693 27.2502 29.9248 26.9502 29.9248 26.6367V9.38672C29.9248 8.69053 29.6482 8.02285 29.156 7.53056C28.6637 7.03828 27.996 6.76172 27.2998 6.76172H18.5608C18.4414 5.98892 18.2289 5.23342 17.9278 4.51172H27.2998ZM18.0133 20.4777L17.8873 20.5827L9.17681 29.1132C9.44981 29.2092 9.7438 29.2617 10.0498 29.2617H27.2998C27.6043 29.2617 27.8983 29.2092 28.1698 29.1132L19.4623 20.5842C19.2723 20.398 19.0226 20.2852 18.7573 20.2657C18.492 20.2462 18.2284 20.3213 18.0133 20.4777ZM23.5528 9.76172C24.4487 9.76172 25.3079 10.1176 25.9414 10.7511C26.5749 11.3846 26.9308 12.2438 26.9308 13.1397C26.9308 14.0356 26.5749 14.8948 25.9414 15.5283C25.3079 16.1618 24.4487 16.5177 23.5528 16.5177C22.6569 16.5177 21.7977 16.1618 21.1642 15.5283C20.5307 14.8948 20.1748 14.0356 20.1748 13.1397C20.1748 12.2438 20.5307 11.3846 21.1642 10.7511C21.7977 10.1176 22.6569 9.76172 23.5528 9.76172ZM8.9248 0.0117188C10.0082 0.0117187 11.081 0.225111 12.0819 0.639713C13.0829 1.05431 13.9924 1.662 14.7584 2.42809C15.5245 3.19417 16.1322 4.10364 16.5468 5.10458C16.9614 6.10552 17.1748 7.17831 17.1748 8.26172C17.1748 9.34512 16.9614 10.4179 16.5468 11.4189C16.1322 12.4198 15.5245 13.3293 14.7584 14.0954C13.9924 14.8614 13.0829 15.4691 12.0819 15.8837C11.081 16.2983 10.0082 16.5117 8.9248 16.5117C6.73677 16.5117 4.63835 15.6425 3.09117 14.0954C1.544 12.5482 0.674805 10.4498 0.674805 8.26172C0.674805 6.07368 1.544 3.97526 3.09117 2.42809C4.63835 0.880913 6.73677 0.0117188 8.9248 0.0117188ZM23.5528 12.0117C23.4047 12.0117 23.258 12.0409 23.1211 12.0976C22.9843 12.1543 22.8599 12.2374 22.7552 12.3421C22.6504 12.4468 22.5674 12.5712 22.5107 12.7081C22.454 12.8449 22.4248 12.9916 22.4248 13.1397C22.4248 13.2878 22.454 13.4345 22.5107 13.5714C22.5674 13.7082 22.6504 13.8326 22.7552 13.9373C22.8599 14.0421 22.9843 14.1252 23.1211 14.1819C23.258 14.2385 23.4047 14.2677 23.5528 14.2677C23.852 14.2677 24.1389 14.1489 24.3504 13.9373C24.562 13.7258 24.6808 13.4389 24.6808 13.1397C24.6808 12.8406 24.562 12.5536 24.3504 12.3421C24.1389 12.1306 23.852 12.0117 23.5528 12.0117ZM8.9248 3.01172L8.7898 3.02222C8.63995 3.0496 8.50198 3.12196 8.39426 3.22968C8.28654 3.3374 8.21418 3.47536 8.1868 3.62522L8.1748 3.76172V7.51172H4.4218L4.2868 7.52372C4.13695 7.5511 3.99898 7.62346 3.89126 7.73118C3.78354 7.8389 3.71118 7.97686 3.6838 8.12672L3.6718 8.26172L3.6838 8.39672C3.71118 8.54658 3.78354 8.68454 3.89126 8.79226C3.99898 8.89998 4.13695 8.97234 4.2868 8.99972L4.4218 9.01172H8.1748V12.7662L8.1868 12.9012C8.21418 13.0511 8.28654 13.189 8.39426 13.2968C8.50198 13.4045 8.63995 13.4768 8.7898 13.5042L8.9248 13.5177L9.0598 13.5042C9.20966 13.4768 9.34763 13.4045 9.45535 13.2968C9.56306 13.189 9.63543 13.0511 9.6628 12.9012L9.6748 12.7662V9.01172H13.4323L13.5673 8.99972C13.7172 8.97234 13.8551 8.89998 13.9628 8.79226C14.0706 8.68454 14.1429 8.54658 14.1703 8.39672L14.1823 8.26172L14.1703 8.12672C14.1428 7.97666 14.0702 7.83854 13.9622 7.7308C13.8542 7.62306 13.7159 7.55082 13.5658 7.52372L13.4308 7.51172H9.6748V3.76172L9.6628 3.62672C9.6357 3.47659 9.56346 3.33829 9.45572 3.23028C9.34798 3.12228 9.20987 3.04969 9.0598 3.02222L8.9248 3.01172Z" fill="#32343E"/>
</svg>
