<svg width="17" height="20" viewBox="0 0 17 20" fill="none" xmlns="http://www.w3.org/2000/svg">
<path d="M13.754 11.9999C14.0495 11.9998 14.342 12.0579 14.615 12.1708C14.888 12.2838 15.136 12.4494 15.345 12.6583C15.5539 12.8671 15.7197 13.1151 15.8327 13.388C15.9458 13.6609 16.004 13.9535 16.004 14.2489V14.8239C16.004 15.7179 15.684 16.5839 15.102 17.2619C13.532 19.0959 11.145 20.0009 8.00003 20.0009C4.85403 20.0009 2.46803 19.0959 0.902028 17.2609C0.322413 16.582 0.0039978 15.7186 0.00402854 14.8259V14.2489C0.00389718 13.9535 0.061972 13.6609 0.174936 13.3879C0.2879 13.115 0.453539 12.8669 0.662391 12.658C0.871243 12.449 1.11922 12.2833 1.39214 12.1702C1.66507 12.0571 1.9576 11.9989 2.25303 11.9989H13.754V11.9999ZM13.754 13.4999H2.25303C2.15458 13.4998 2.05708 13.5191 1.96609 13.5566C1.8751 13.5942 1.79242 13.6494 1.72276 13.7189C1.6531 13.7885 1.59784 13.8711 1.56014 13.962C1.52243 14.053 1.50303 14.1505 1.50303 14.2489V14.8259C1.50303 15.3619 1.69503 15.8799 2.04303 16.2869C3.29603 17.7549 5.26203 18.5009 8.00003 18.5009C10.738 18.5009 12.706 17.7549 13.962 16.2869C14.311 15.8793 14.5029 15.3605 14.503 14.8239V14.2489C14.5032 14.1505 14.4839 14.053 14.4463 13.962C14.4087 13.871 14.3536 13.7883 14.284 13.7186C14.2144 13.649 14.1318 13.5937 14.0409 13.556C13.95 13.5183 13.8525 13.4989 13.754 13.4989V13.4999ZM8.00003 0.00390625C9.32611 0.00390625 10.5979 0.53069 11.5356 1.46837C12.4732 2.40605 13 3.67782 13 5.00391C13 6.32999 12.4732 7.60176 11.5356 8.53944C10.5979 9.47712 9.32611 10.0039 8.00003 10.0039C6.67395 10.0039 5.40218 9.47712 4.46449 8.53944C3.52681 7.60176 3.00003 6.32999 3.00003 5.00391C3.00003 3.67782 3.52681 2.40605 4.46449 1.46837C5.40218 0.53069 6.67395 0.00390625 8.00003 0.00390625ZM8.00003 1.50391C7.5404 1.50391 7.08528 1.59444 6.66064 1.77033C6.236 1.94622 5.85016 2.20403 5.52515 2.52903C5.20015 2.85404 4.94234 3.23987 4.76645 3.66451C4.59056 4.08915 4.50003 4.54428 4.50003 5.00391C4.50003 5.46353 4.59056 5.91866 4.76645 6.3433C4.94234 6.76794 5.20015 7.15378 5.52515 7.47878C5.85016 7.80379 6.236 8.06159 6.66064 8.23748C7.08528 8.41338 7.5404 8.50391 8.00003 8.50391C8.92829 8.50391 9.81853 8.13516 10.4749 7.47878C11.1313 6.8224 11.5 5.93216 11.5 5.00391C11.5 4.07565 11.1313 3.18541 10.4749 2.52903C9.81853 1.87266 8.92829 1.50391 8.00003 1.50391Z" fill="#212121"/>
</svg>
