<svg width="11" height="17" viewBox="0 0 11 17" fill="none" xmlns="http://www.w3.org/2000/svg">
<path d="M0.963201 6.90778C0.137095 6.90778 -0.304417 5.93476 0.240166 5.31325L4.48684 0.459691C4.61318 0.315303 4.76893 0.199591 4.94364 0.120312C5.11836 0.0410337 5.308 1.95503e-05 5.49986 1.95503e-05C5.69172 1.95503e-05 5.88136 0.0410337 6.05608 0.120312C6.23079 0.199591 6.38654 0.315303 6.51288 0.459691L10.7603 5.31325C11.3041 5.93476 10.8626 6.90778 10.0373 6.90778H0.962432H0.963201Z" fill="#32343E"/>
<path d="M0.963201 9.90778C0.137095 9.90778 -0.304417 10.8808 0.240166 11.5023L4.48684 16.3559C4.61318 16.5002 4.76893 16.616 4.94364 16.6952C5.11836 16.7745 5.308 16.8155 5.49986 16.8155C5.69172 16.8155 5.88136 16.7745 6.05608 16.6952C6.23079 16.616 6.38654 16.5002 6.51288 16.3559L10.7603 11.5023C11.3041 10.8808 10.8626 9.90778 10.0373 9.90778H0.962432H0.963201Z" fill="#32343E"/>
</svg>
